<svg width="24" height="24" viewBox="0 0 24 24" fill="none" xmlns="http://www.w3.org/2000/svg">
<g clip-path="url(#clip0_4658_11622)">
<path d="M13.3332 8.66634L15.3332 10.6663M7.3332 7.99967V10.6663M16.6665 13.333V15.9997M10.6665 5.33301V6.66634M8.66653 9.33301H5.99987M17.9999 14.6663H15.3332M11.3332 5.99967H9.99987M18.4265 6.42634L17.5732 5.57301C17.4982 5.49722 17.4089 5.43705 17.3105 5.39599C17.2121 5.35493 17.1065 5.33379 16.9999 5.33379C16.8932 5.33379 16.7877 5.35493 16.6893 5.39599C16.5908 5.43705 16.5015 5.49722 16.4265 5.57301L5.5732 16.4263C5.49741 16.5014 5.43725 16.5906 5.39619 16.6891C5.35513 16.7875 5.33398 16.893 5.33398 16.9997C5.33398 17.1063 5.35513 17.2119 5.39619 17.3103C5.43725 17.4087 5.49741 17.498 5.5732 17.573L6.42653 18.4263C6.50108 18.5029 6.59022 18.5638 6.6887 18.6054C6.78717 18.647 6.89298 18.6684 6.99987 18.6684C7.10676 18.6684 7.21256 18.647 7.31104 18.6054C7.40951 18.5638 7.49865 18.5029 7.5732 18.4263L18.4265 7.57301C18.5031 7.49846 18.564 7.40932 18.6056 7.31084C18.6472 7.21237 18.6686 7.10656 18.6686 6.99967C18.6686 6.89278 18.6472 6.78698 18.6056 6.6885C18.564 6.59003 18.5031 6.50089 18.4265 6.42634Z" stroke="#09090B" stroke-width="2" stroke-linecap="round" stroke-linejoin="round"/>
</g>
<defs>
<clipPath id="clip0_4658_11622">
<rect width="16" height="16" fill="white" transform="translate(4 4)"/>
</clipPath>
</defs>
</svg>
