<svg width="17" height="17" viewBox="0 0 17 17" fill="none" xmlns="http://www.w3.org/2000/svg">
<path fill-rule="evenodd" clip-rule="evenodd" d="M8.9705 5.73277L14.5156 4.125L13.1354 9.7311L11.4137 8.0782L8.63632 10.9713C8.54203 11.0695 8.41177 11.125 8.27563 11.125C8.13948 11.125 8.00922 11.0695 7.91493 10.9713L5.87563 8.84699L2.87632 11.9713C2.68508 12.1705 2.36857 12.1769 2.16936 11.9857C1.97015 11.7945 1.96369 11.4779 2.15493 11.2787L5.51493 7.77873C5.60922 7.68052 5.73948 7.625 5.87563 7.625C6.01177 7.625 6.14203 7.68052 6.23632 7.77873L8.27563 9.90301L10.6923 7.38567L8.9705 5.73277Z" fill="#1C1C1C"/>
</svg>
