<svg width="40" height="40" viewBox="0 0 40 40" fill="none" xmlns="http://www.w3.org/2000/svg">
<g id="Avatar">
<path id="Background" d="M0 20C0 8.95431 8.95431 0 20 0C31.0457 0 40 8.95431 40 20C40 31.0457 31.0457 40 20 40C8.95431 40 0 31.0457 0 20Z" fill="#D9D9D9"/>
<g id="discord">
<rect id="Rectangle 25" width="40" height="40" rx="20" fill="#D9D9D9"/>
<path id="Vector" d="M30.1341 10.7001L30.0567 10.5845L29.9306 10.5255C28.0783 9.65884 26.0978 9.02902 24.0274 8.67042L23.6767 8.60969L23.5045 8.92108C23.3052 9.28146 23.0817 9.73422 22.8949 10.1509C20.9507 9.89202 19.0207 9.89159 17.106 10.1502C16.9165 9.7318 16.6883 9.27867 16.4879 8.91943L16.3152 8.60999L15.966 8.67041C13.8931 9.02905 11.9102 9.66123 10.0579 10.5302L9.93075 10.5898L9.85326 10.7069C6.12986 16.3334 5.11577 21.836 5.62107 27.2516L5.64171 27.4728L5.81973 27.6057C8.29359 29.4532 10.6952 30.5777 13.0549 31.313L13.3974 31.4196L13.6082 31.1295C14.1945 30.3225 14.7177 29.4643 15.1686 28.5595L15.3658 28.1638C18.4274 29.0445 21.5904 29.0475 24.632 28.1716L24.8272 28.5623C25.2774 29.4636 25.7983 30.3242 26.3879 31.1325L26.5987 31.4216L26.9404 31.3152C29.3023 30.58 31.7063 29.4555 34.1804 27.6056L34.3579 27.4728L34.3788 27.2521C34.9718 20.9727 33.3625 15.5212 30.1341 10.7001ZM17.366 21.068L17.3659 21.068L17.3659 21.0763C17.3678 22.4372 16.4188 23.4391 15.3487 23.4391C14.3005 23.4391 13.3315 22.4344 13.3315 21.0757C13.3315 19.7131 14.2797 18.71 15.3487 18.71C16.4243 18.71 17.3868 19.7169 17.366 21.068ZM26.6685 21.068H26.6684V21.0757C26.6684 22.4377 25.7207 23.4391 24.6512 23.4391C23.603 23.4391 22.634 22.4344 22.634 21.0757C22.634 19.7131 23.5821 18.71 24.6512 18.71C25.7267 18.71 26.6893 19.7169 26.6685 21.068Z" fill="black" stroke="white"/>
</g>
</g>
</svg>
