<svg width="18" height="15" viewBox="0 0 18 15" fill="none" xmlns="http://www.w3.org/2000/svg">
<path d="M14.969 2.06634L14.8915 1.95066L14.7654 1.89166C13.6899 1.38847 12.54 1.02279 11.3379 0.814586L10.9873 0.753856L10.8151 1.06525C10.721 1.23524 10.6183 1.4393 10.525 1.63929C9.50168 1.51561 8.48464 1.51528 7.47471 1.63873C7.3795 1.43748 7.2747 1.23296 7.18019 1.06359L7.0075 0.754159L6.65833 0.814571C5.45473 1.02281 4.30333 1.38989 3.22778 1.89444L3.10065 1.95407L3.02316 2.07117C0.866537 5.33011 0.277173 8.52392 0.570107 11.6634L0.590748 11.8847L0.768772 12.0176C2.20346 13.089 3.598 13.7422 4.96765 14.1689L5.31006 14.2756L5.52088 13.9854C5.86278 13.5149 6.16795 13.0143 6.43097 12.4865L6.4648 12.4186C8.14132 12.8691 9.86716 12.8709 11.5341 12.4231L11.5667 12.4883C11.8291 13.0136 12.1329 13.5157 12.4771 13.9875L12.688 14.2766L13.0296 14.1702C14.4005 13.7435 15.7965 13.0903 17.2314 12.0174L17.4089 11.8847L17.4298 11.664C17.7736 8.02301 16.8391 4.85916 14.969 2.06634ZM7.28059 8.10674L7.28052 8.10674L7.28053 8.11513C7.28149 8.80212 6.8091 9.25068 6.34212 9.25068C5.88665 9.25068 5.4037 8.79934 5.4037 8.11443C5.4037 7.42568 5.87617 6.97691 6.34212 6.97691C6.81457 6.97691 7.29099 7.43053 7.28059 8.10674ZM12.5963 8.10674L12.5962 8.10674V8.11443C12.5962 8.80265 12.1242 9.25068 11.6578 9.25068C11.2024 9.25068 10.7194 8.79934 10.7194 8.11443C10.7194 7.42568 11.1919 6.97691 11.6578 6.97691C12.1303 6.97691 12.6067 7.43053 12.5963 8.10674Z" fill="black" stroke="white"/>
</svg>
