<svg width="25" height="24" viewBox="0 0 25 24" fill="none" xmlns="http://www.w3.org/2000/svg">
<path d="M12.5195 12.75H20.7695C21.1837 12.75 21.5195 12.4142 21.5195 12C21.5195 11.5858 21.1837 11.25 20.7695 11.25H12.5195C12.1053 11.25 11.7695 11.5858 11.7695 12C11.7695 12.4142 12.1053 12.75 12.5195 12.75Z" fill="#1C1C1C"/>
<path d="M12.5195 6.75H20.7695C21.1837 6.75 21.5195 6.41421 21.5195 6C21.5195 5.58579 21.1837 5.25 20.7695 5.25H12.5195C12.1053 5.25 11.7695 5.58579 11.7695 6C11.7695 6.41421 12.1053 6.75 12.5195 6.75Z" fill="#1C1C1C"/>
<path d="M12.5195 18.75H20.7695C21.1837 18.75 21.5195 18.4142 21.5195 18C21.5195 17.5858 21.1837 17.25 20.7695 17.25H12.5195C12.1053 17.25 11.7695 17.5858 11.7695 18C11.7695 18.4142 12.1053 18.75 12.5195 18.75Z" fill="#1C1C1C"/>
<path d="M9.65276 5.05155C9.6602 5.04469 9.66771 5.03748 9.67486 5.03033C9.80809 4.8971 9.8863 4.7186 9.89392 4.53033L9.89396 4.52923C9.89434 4.51949 9.89453 4.50974 9.89453 4.5C9.89453 4.31158 9.82361 4.13007 9.69588 3.99155C9.68902 3.98412 9.68201 3.97682 9.67486 3.96967C9.54163 3.83644 9.36313 3.75823 9.17487 3.75061L9.17376 3.75057C9.16402 3.75019 9.15428 3.75 9.14453 3.75C8.95611 3.75 8.7746 3.82092 8.63609 3.94865L5.89214 6.47909L4.77877 5.44939C4.64017 5.3212 4.45832 5.25 4.26953 5.25C4.25977 5.25 4.25002 5.25019 4.24027 5.25057C4.04151 5.25833 3.85398 5.34473 3.71892 5.49076C3.59073 5.62936 3.51953 5.81121 3.51953 6C3.51953 6.00976 3.51972 6.01951 3.5201 6.02926C3.52786 6.22802 3.61426 6.41556 3.76029 6.55061L5.38217 8.05061C5.66931 8.31618 6.11233 8.3165 6.39985 8.05135L9.65276 5.05155Z" fill="#1C1C1C"/>
<path d="M9.65276 11.0515C9.6602 11.0447 9.66771 11.0375 9.67486 11.0303C9.80809 10.8971 9.8863 10.7186 9.89392 10.5303L9.89396 10.5292C9.89434 10.5195 9.89453 10.5097 9.89453 10.5C9.89453 10.3116 9.82361 10.1301 9.69588 9.99155C9.68902 9.98412 9.68201 9.97682 9.67486 9.96967C9.54163 9.83644 9.36313 9.75823 9.17487 9.75061L9.17376 9.75057C9.16402 9.75019 9.15428 9.75 9.14453 9.75C8.95611 9.75 8.7746 9.82092 8.63609 9.94865L5.89214 12.4791L4.77877 11.4494C4.64017 11.3212 4.45832 11.25 4.26953 11.25C4.25977 11.25 4.25002 11.2502 4.24027 11.2506C4.04151 11.2583 3.85398 11.3447 3.71892 11.4908C3.59073 11.6294 3.51953 11.8112 3.51953 12C3.51953 12.0098 3.51972 12.0195 3.5201 12.0293C3.52786 12.228 3.61426 12.4156 3.76029 12.5506L5.38217 14.0506C5.66931 14.3162 6.11233 14.3165 6.39985 14.0513L9.65276 11.0515Z" fill="#1C1C1C"/>
<path d="M9.65276 17.0515C9.6602 17.0447 9.66771 17.0375 9.67486 17.0303C9.80809 16.8971 9.8863 16.7186 9.89392 16.5303L9.89396 16.5292C9.89434 16.5195 9.89453 16.5097 9.89453 16.5C9.89453 16.3116 9.82361 16.1301 9.69588 15.9916C9.68902 15.9841 9.68201 15.9768 9.67486 15.9697C9.54163 15.8364 9.36313 15.7582 9.17487 15.7506L9.17376 15.7506C9.16402 15.7502 9.15428 15.75 9.14453 15.75C8.95611 15.75 8.7746 15.8209 8.63609 15.9487L5.89214 18.4791L4.77877 17.4494C4.64017 17.3212 4.45832 17.25 4.26953 17.25C4.25977 17.25 4.25002 17.2502 4.24027 17.2506C4.04151 17.2583 3.85398 17.3447 3.71892 17.4908C3.59073 17.6294 3.51953 17.8112 3.51953 18C3.51953 18.0098 3.51972 18.0195 3.5201 18.0293C3.52786 18.228 3.61426 18.4156 3.76029 18.5506L5.38217 20.0506C5.66931 20.3162 6.11233 20.3165 6.39985 20.0513L9.65276 17.0515Z" fill="#1C1C1C"/>
</svg>
