<svg width="40" height="40" viewBox="0 0 40 40" fill="none" xmlns="http://www.w3.org/2000/svg">
<g id="telegram">
<rect id="Rectangle 24" width="40" height="40" rx="20" fill="#D9D9D9"/>
<path id="Vector" d="M4.88131 22.3005C4.88148 22.3006 4.88164 22.3006 5.05782 21.8327L4.88161 22.3007L4.88971 22.3036L10.9051 24.4511L10.9161 24.4893L11.1351 25.2508C11.318 25.8863 11.5657 26.7468 11.8251 27.6463C12.3433 29.4439 12.9092 31.4016 13.0958 32.0293L13.0959 32.0296C13.2896 32.6794 13.4776 33.0607 13.6477 33.2901C13.7346 33.4072 13.8241 33.4949 13.9175 33.5564C13.9646 33.5874 14.0123 33.6115 14.0601 33.6289C14.0648 33.6306 14.0695 33.6323 14.0742 33.6339C14.389 33.7647 14.6813 33.7149 14.8734 33.6463C14.9737 33.6104 15.055 33.567 15.1118 33.5322C15.1407 33.5146 15.1644 33.4985 15.1824 33.4857C15.1853 33.4836 15.1881 33.4816 15.1907 33.4796C15.1962 33.4756 15.2011 33.472 15.2053 33.4687L15.2137 33.4623L15.217 33.4596L15.2185 33.4584L15.2192 33.4579L15.2195 33.4576C15.2197 33.4575 15.2199 33.4574 14.9057 33.0684L15.2199 33.4574L15.2372 33.4433L15.2533 33.4278L18.9769 29.8271L24.933 34.6718L24.9817 34.7114L25.0386 34.7377C25.5373 34.9684 25.9933 35.0372 26.4023 34.9779C26.8103 34.9188 27.1322 34.7381 27.3732 34.5338C27.6113 34.3318 27.7751 34.1033 27.8784 33.9306C27.9308 33.8431 27.9695 33.7668 27.9958 33.7104C28.009 33.6821 28.0193 33.6586 28.0267 33.641L28.0357 33.6189L28.0387 33.6113L28.0398 33.6084L28.0403 33.6072L28.0405 33.6067C28.0406 33.6064 28.0406 33.6061 27.5729 33.4296L28.0406 33.6061L28.0562 33.5648L28.0644 33.5214L32.4915 9.83422L32.5 9.78868V9.74236C32.5 9.23333 32.3279 8.81885 31.9651 8.56784C31.6342 8.33883 31.2396 8.31545 30.9382 8.33956C30.6254 8.36457 30.3265 8.44786 30.1156 8.51898C30.0079 8.55532 29.9178 8.59029 29.8538 8.61658C29.8218 8.62976 29.796 8.64085 29.7775 8.64898L29.7561 8.65853L29.7554 8.65886L4.90525 19.0015L4.89609 19.005C4.88414 19.0097 4.86796 19.0161 4.8482 19.0242C4.80876 19.0406 4.75449 19.0641 4.6905 19.095C4.56412 19.1558 4.39198 19.2486 4.21925 19.3741C3.9036 19.6035 3.42998 20.0607 3.50832 20.7393L3.50849 20.7407C3.57854 21.3326 3.96733 21.7286 4.2661 21.9531C4.42118 22.0697 4.57063 22.1544 4.6809 22.2102C4.73654 22.2383 4.78353 22.2597 4.81801 22.2746C4.83529 22.2821 4.84954 22.288 4.86027 22.2923L4.87373 22.2976L4.8784 22.2994L4.8802 22.3001L4.88096 22.3004L4.88131 22.3005ZM9.87423 20.5446L28.5516 12.7705L25.2168 30.6061L19.1289 25.6556L18.7848 25.3758L18.4659 25.6841L17.3656 26.7478L17.6594 23.9999L26.5102 15.6114L25.911 14.8186L13.8662 21.9695L9.87423 20.5446Z" fill="black" stroke="white"/>
</g>
</svg>
