<svg width="18" height="17" viewBox="0 0 18 17" fill="none" xmlns="http://www.w3.org/2000/svg">
<path d="M6.67518 15.5378C6.67704 15.5385 6.6789 15.5392 6.68076 15.5398C6.92223 15.638 7.14476 15.5985 7.28548 15.5482C7.35969 15.5217 7.41944 15.4897 7.46135 15.4641C7.4827 15.4511 7.50057 15.439 7.51458 15.429C7.51848 15.4262 7.52211 15.4235 7.52546 15.421C7.52815 15.419 7.53066 15.4172 7.53299 15.4154L7.54016 15.4098L7.54324 15.4074L7.54465 15.4063L7.54533 15.4057L7.54566 15.4055C7.54582 15.4053 7.54598 15.4052 7.23184 15.0162L7.54598 15.4052L7.56336 15.3912L7.57942 15.3756L9.57049 13.4502L12.8265 16.0987L12.8751 16.1382L12.932 16.1646C13.2482 16.3108 13.5506 16.3602 13.832 16.3194C14.1124 16.2788 14.3326 16.1545 14.4947 16.017C14.6539 15.882 14.7617 15.7309 14.8287 15.6189C14.8629 15.5618 14.8883 15.5116 14.906 15.4739C14.9149 15.4549 14.9219 15.4388 14.9272 15.4262L14.9338 15.4099L14.9362 15.4038L14.9372 15.4013L14.9376 15.4002L14.9378 15.3997C14.9379 15.3994 14.938 15.3992 14.4702 15.2226L14.938 15.3992L14.9536 15.3579L14.9617 15.3145L17.4915 1.77892L17.5 1.73338V1.68706C17.5 1.34708 17.3826 1.03387 17.102 0.83969C16.8532 0.667512 16.5681 0.656502 16.3761 0.671852C16.1729 0.688107 15.9835 0.741515 15.8547 0.784938C15.788 0.807422 15.7322 0.829095 15.6922 0.845539C15.6721 0.853799 15.6557 0.860842 15.6437 0.866144L15.6331 0.870886L1.43786 6.77897L1.43474 6.78016C1.42647 6.78336 1.41569 6.78764 1.40277 6.79298C1.37703 6.80363 1.34229 6.81874 1.30161 6.83832C1.22186 6.87672 1.11149 6.93604 0.999294 7.01758C0.804732 7.159 0.447332 7.48595 0.506168 7.99558L0.506336 7.997C0.556361 8.41968 0.832349 8.69245 1.02333 8.83595C1.12451 8.91199 1.22132 8.96682 1.29242 9.00276C1.32847 9.02098 1.35924 9.03502 1.38241 9.04503C1.39403 9.05005 1.40383 9.05411 1.41155 9.05722L1.42156 9.06118L1.42534 9.06264L1.42692 9.06324L1.42763 9.06351L1.42797 9.06364C1.42813 9.0637 1.42829 9.06376 1.60434 8.59617L1.42826 9.06383L1.43636 9.06672L4.77021 10.2569L4.87129 10.6083C4.9758 10.9715 5.11736 11.4632 5.26557 11.9772C5.56157 13.0039 5.88523 14.1238 5.99218 14.4835L5.99229 14.4839C6.10636 14.8664 6.22257 15.111 6.34087 15.2706C6.40175 15.3527 6.47039 15.4221 6.5493 15.474C6.58913 15.5003 6.63121 15.5218 6.67518 15.5378ZM4.95118 7.84445L14.746 3.76753L12.9795 13.2156L9.78029 10.6141L9.43619 10.3343L9.11732 10.6425L8.91336 10.8397L9.01003 9.93546L14.0104 5.19635L13.4112 4.40351L6.61504 8.43834L4.95118 7.84445Z" fill="black" stroke="white"/>
</svg>
