<svg width="24" height="24" viewBox="0 0 24 24" fill="none" xmlns="http://www.w3.org/2000/svg">
<path d="M12.75 6.75V8.25M12.75 15.75V17.25M12.75 11.25V12.75M4.5 9.75C5.09674 9.75 5.66903 9.98705 6.09099 10.409C6.51295 10.831 6.75 11.4033 6.75 12C6.75 12.5967 6.51295 13.169 6.09099 13.591C5.66903 14.0129 5.09674 14.25 4.5 14.25V15.75C4.5 16.1478 4.65804 16.5294 4.93934 16.8107C5.22064 17.092 5.60218 17.25 6 17.25H18C18.3978 17.25 18.7794 17.092 19.0607 16.8107C19.342 16.5294 19.5 16.1478 19.5 15.75V14.25C18.9033 14.25 18.331 14.0129 17.909 13.591C17.4871 13.169 17.25 12.5967 17.25 12C17.25 11.4033 17.4871 10.831 17.909 10.409C18.331 9.98705 18.9033 9.75 19.5 9.75V8.25C19.5 7.85218 19.342 7.47064 19.0607 7.18934C18.7794 6.90804 18.3978 6.75 18 6.75H6C5.60218 6.75 5.22064 6.90804 4.93934 7.18934C4.65804 7.47064 4.5 7.85218 4.5 8.25V9.75Z" stroke="#09090B" stroke-width="2" stroke-linecap="round" stroke-linejoin="round"/>
</svg>
