<svg width="25" height="24" viewBox="0 0 25 24" fill="none" xmlns="http://www.w3.org/2000/svg">
<path fill-rule="evenodd" clip-rule="evenodd" d="M12.041 8.62538C12.041 8.62538 13.905 8.62538 15.223 9.9434C15.223 9.9434 16.541 11.2614 16.541 13.1254C16.541 13.1254 16.541 14.9893 15.223 16.3074C15.223 16.3074 13.905 17.6254 12.041 17.6254C12.041 17.6254 10.1771 17.6254 8.85903 16.3074C8.85903 16.3074 7.54102 14.9893 7.54102 13.1254C7.54102 13.1254 7.54102 11.2614 8.85903 9.9434C8.85903 9.9434 10.1771 8.62538 12.041 8.62538ZM12.041 10.1254C12.041 10.1254 10.7984 10.1254 9.91969 11.0041C9.91969 11.0041 9.04102 11.8827 9.04102 13.1254C9.04102 13.1254 9.04102 14.368 9.91969 15.2467C9.91969 15.2467 10.7984 16.1254 12.041 16.1254C12.041 16.1254 13.2837 16.1254 14.1623 15.2467C14.1623 15.2467 15.041 14.368 15.041 13.1254C15.041 13.1254 15.041 11.8827 14.1623 11.0041C14.1623 11.0041 13.2837 10.1254 12.041 10.1254Z" fill="#1C1C1C"/>
<path d="M22.315 13.5741C22.4341 13.7334 22.6119 13.8392 22.8087 13.8677C22.8443 13.8728 22.8801 13.8754 22.916 13.8754L22.9174 13.8754C23.0787 13.8751 23.2358 13.8228 23.365 13.7261C23.5545 13.5845 23.666 13.3619 23.666 13.1254L23.666 13.1168C23.6642 12.9579 23.6119 12.8037 23.5168 12.6764L23.5161 12.6755C22.6147 11.4697 21.268 10.7964 21.268 10.7964C19.9209 10.1229 18.4148 10.1254 18.4148 10.1254L18.416 10.1254C18.8302 10.1254 19.166 10.4612 19.166 10.8754C19.166 11.2889 18.8313 11.6245 18.4177 11.6254L22.315 13.5741Z" fill="#1C1C1C"/>
<path d="M3.48485 12.1381C4.51407 11.6235 5.66476 11.6254 5.66476 11.6254L5.66581 11.6254C5.67741 11.6254 5.68921 11.6251 5.70079 11.6246C5.88704 11.6159 6.0634 11.5382 6.19546 11.4066C6.33635 11.2662 6.41568 11.0756 6.41601 10.8766L6.41602 10.8756C6.41602 10.8302 6.4119 10.7848 6.40372 10.7401C6.33852 10.3845 6.02885 10.126 5.66727 10.1254L5.66602 10.1254C4.16059 10.1231 2.81403 10.7964 2.81403 10.7964C1.4674 11.4697 0.565903 12.6755 0.565903 12.6755L0.565361 12.6763C0.468371 12.806 0.416016 12.9635 0.416016 13.1254L0.416057 13.1332C0.416405 13.1665 0.418969 13.1997 0.423732 13.2327C0.452192 13.4296 0.557691 13.6071 0.71702 13.7261C0.846661 13.823 1.00417 13.8754 1.16602 13.8754C1.17604 13.8754 1.18607 13.8752 1.19609 13.8748C1.42185 13.8657 1.6315 13.7554 1.76677 13.5744C2.45564 12.6527 3.48485 12.1381 3.48485 12.1381Z" fill="#1C1C1C"/>
<path d="M14.827 18.4263C16.105 19.2245 16.7664 20.5781 16.7664 20.5781L16.7668 20.579C16.8926 20.8365 17.1544 21.0004 17.441 21.0004L17.4615 21.0001C17.5686 20.9971 17.6738 20.9713 17.7701 20.9243C18.0276 20.7985 18.191 20.537 18.191 20.2504L18.1907 20.2298C18.1878 20.1227 18.162 20.0175 18.115 19.9213C17.2649 18.1808 15.6216 17.154 15.6216 17.154C13.9784 16.1278 12.041 16.1278 12.041 16.1278C10.1036 16.1278 8.46038 17.154 8.46038 17.154C6.81742 18.1802 5.96735 19.9207 5.96735 19.9207C5.91728 20.0232 5.89101 20.1363 5.89101 20.2504L5.89107 20.2601C5.89211 20.3398 5.90584 20.4188 5.93176 20.4942C5.99643 20.6823 6.13318 20.837 6.31192 20.9243C6.41441 20.9743 6.52696 21.0004 6.64101 21.0004L6.65823 21.0002C6.93857 20.9937 7.19191 20.8314 7.31495 20.5794C7.97639 19.2248 9.25497 18.4263 9.25497 18.4263C10.5335 17.6278 12.041 17.6278 12.041 17.6278C13.5485 17.6278 14.827 18.4263 14.827 18.4263Z" fill="#1C1C1C"/>
<path d="M7.30278 6.33475C7.75046 6.81126 7.87305 7.45348 7.87305 7.45348C7.91035 7.64887 8.02373 7.82143 8.18826 7.93322C8.31259 8.01769 8.45944 8.06286 8.60975 8.06286L8.61461 8.06284C8.66018 8.06255 8.70562 8.0581 8.75038 8.04956C9.10398 7.98206 9.35975 7.67284 9.35975 7.31286L9.35974 7.30863C9.35948 7.26286 9.35503 7.2172 9.34645 7.17223C9.14213 6.10186 8.39599 5.30767 8.39599 5.30767C7.64985 4.51348 6.59429 4.24285 6.59429 4.24285C5.53873 3.97222 4.50252 4.30943 4.50252 4.30943C3.4663 4.64664 2.77217 5.48666 2.77217 5.48666C2.07805 6.32668 1.94221 7.40789 1.94221 7.40789C1.80637 8.48909 2.27112 9.47472 2.27112 9.47472C2.73587 10.4603 3.65647 11.0434 3.65647 11.0434C4.57674 11.6263 5.66581 11.6254 5.66581 11.6254L5.66676 11.6254C5.86567 11.6252 6.05636 11.5459 6.19687 11.4051C6.33719 11.2645 6.41602 11.0743 6.41602 10.8756L6.416 10.8746C6.41558 10.4607 6.07993 10.1254 5.66602 10.1254L5.66524 10.1254C5.01142 10.126 4.45906 9.77618 4.45906 9.77618C3.90671 9.42635 3.62785 8.83497 3.62785 8.83497C3.349 8.2436 3.43051 7.59488 3.43051 7.59488C3.51201 6.94615 3.92849 6.44214 3.92849 6.44214C4.34496 5.93812 4.96669 5.7358 4.96669 5.7358C5.58842 5.53347 6.22176 5.69585 6.22176 5.69585C6.85509 5.85823 7.30278 6.33475 7.30278 6.33475Z" fill="#1C1C1C"/>
<path d="M19.623 9.77618C19.0706 10.126 18.4168 10.1254 18.4168 10.1254L18.416 10.1254C18.4043 10.1254 18.3925 10.1256 18.3808 10.1262L17.6669 10.9106C17.6756 11.0969 17.7534 11.2732 17.8852 11.4051C18.0257 11.5459 18.2164 11.6252 18.4153 11.6254L18.416 11.6254C19.5053 11.6263 20.4256 11.0434 20.4256 11.0434C21.3462 10.4603 21.8109 9.47472 21.8109 9.47472C22.2757 8.48909 22.1398 7.40789 22.1398 7.40789C22.004 6.32668 21.3098 5.48666 21.3098 5.48666C20.6157 4.64664 19.5795 4.30943 19.5795 4.30943C18.5433 3.97222 17.4877 4.24285 17.4877 4.24285C16.4322 4.51348 15.686 5.30767 15.686 5.30767C14.9399 6.10185 14.7356 7.17223 14.7356 7.17223C14.7267 7.21858 14.7223 7.26567 14.7223 7.31286C14.7223 7.3354 14.7233 7.35792 14.7253 7.38037C14.7555 7.71374 15.0029 7.98679 15.3316 8.04956C15.378 8.0584 15.4251 8.06286 15.4723 8.06286C15.4948 8.06286 15.5173 8.06184 15.5398 8.05981C15.8732 8.02968 16.1462 7.78228 16.209 7.45348C16.3316 6.81126 16.7792 6.33475 16.7792 6.33475C17.2269 5.85823 17.8603 5.69585 17.8603 5.69585C18.4936 5.53347 19.1153 5.7358 19.1153 5.7358C19.7371 5.93812 20.1535 6.44214 20.1535 6.44214C20.57 6.94615 20.6515 7.59488 20.6515 7.59488C20.733 8.2436 20.4542 8.83497 20.4542 8.83497C20.1753 9.42635 19.623 9.77618 19.623 9.77618Z" fill="#1C1C1C"/>
</svg>
