<svg width="40" height="40" viewBox="0 0 40 40" fill="none" xmlns="http://www.w3.org/2000/svg">
<rect width="40" height="40" rx="20" fill="#D9D9D9"/>
<path d="M20 3.5C10.8963 3.5 3.5 10.8963 3.5 20C3.5 29.1037 10.8963 36.5 20 36.5C29.1037 36.5 36.5 29.1037 36.5 20C36.5 10.8963 29.1037 3.5 20 3.5ZM18.7284 6.27237C18.7494 7.51534 18.7454 8.80041 18.7413 10.0791C18.7402 10.4225 18.7392 10.7655 18.7386 11.1071H15.0514C15.538 9.80659 16.1283 8.70296 16.7946 7.85921C17.3983 7.09477 18.0495 6.56147 18.7284 6.27237ZM21.2619 11.1071V6.31803C21.9199 6.61902 22.5512 7.14972 23.1368 7.89802C23.7923 8.73567 24.3734 9.82519 24.8533 11.1071H21.2619ZM9.21592 11.1071C10.5994 9.43082 12.3663 8.08179 14.3822 7.19638C13.6473 8.30888 13.0145 9.63124 12.5087 11.1071H9.21592ZM25.6178 7.19638C27.6337 8.08178 29.4006 9.43082 30.7841 11.1071H27.4913C26.9855 9.63124 26.3527 8.30888 25.6178 7.19638ZM7.55214 13.631H11.8081C11.4518 15.2196 11.2211 16.9316 11.1473 18.7262H6.08419C6.24744 16.9027 6.75815 15.1829 7.55214 13.631ZM13.6358 18.7262C13.7096 16.9253 13.9341 15.1988 14.2984 13.631H18.7381V18.7262H13.6358ZM21.2619 13.631H25.6064C25.9706 15.1988 26.1952 16.9253 26.269 18.7262H21.2619V13.631ZM28.1919 13.631H32.4479C33.2418 15.1829 33.7526 16.9027 33.9158 18.7262H28.8527C28.7789 16.9316 28.5482 15.2196 28.1919 13.631ZM6.08372 21.25H11.1467C11.2181 23.0432 11.4437 24.7566 11.7972 26.3452H7.54089C6.75191 24.7952 6.24498 23.071 6.08372 21.25ZM13.6355 21.25H18.7381V26.3452H14.2987C13.9351 24.7759 13.7085 23.0502 13.6355 21.25ZM21.2619 21.25H26.2693C26.1963 23.0502 25.9697 24.7759 25.6061 26.3452H21.2619V21.25ZM28.2028 26.3452C28.5563 24.7566 28.7819 23.0432 28.8533 21.25H33.9163C33.755 23.071 33.2481 24.7952 32.4591 26.3452H28.2028ZM12.4963 28.869C13.0019 30.3506 13.6353 31.6764 14.3716 32.7918C12.3477 31.9039 10.5742 30.5529 9.18953 28.869H12.4963ZM16.8028 32.1334C16.1328 31.2872 15.5396 30.178 15.0509 28.869H18.7381V33.7147C18.0585 33.4276 17.4068 32.8963 16.8028 32.1334ZM21.2619 28.869H24.8538C24.3739 30.1542 23.7929 31.2467 23.1373 32.0865C22.5517 32.8366 21.9204 33.3685 21.2619 33.67V28.869ZM25.6284 32.7918C26.3647 31.6764 26.9981 30.3506 27.5037 28.869H30.8105C29.4258 30.5529 27.6523 31.9039 25.6284 32.7918Z" fill="black" stroke="white"/>
</svg>
