<svg width="132" height="24" viewBox="0 0 132 24" fill="none" xmlns="http://www.w3.org/2000/svg">
<path d="M11.4722 20.3186V11.6061C11.4722 10.9387 11.3264 10.36 11.0349 9.86986C10.7546 9.36931 10.3285 8.9835 9.75661 8.71236C9.18472 8.44122 8.4783 8.30568 7.63736 8.30568C6.85243 8.30568 6.16281 8.43079 5.56854 8.68107C4.98547 8.93134 4.52574 9.25982 4.18935 9.6665C3.86417 10.0732 3.70158 10.5112 3.70158 10.9804H0.589977C0.589977 10.3756 0.758165 9.77599 1.09456 9.18162C1.43095 8.58725 1.91311 8.05022 2.54104 7.57053C3.18018 7.0804 3.94266 6.69459 4.82849 6.41302C5.72553 6.12102 6.72348 5.97505 7.82239 5.97505C9.14549 5.97505 10.3116 6.1836 11.3208 6.60071C12.3412 7.01782 13.1373 7.64873 13.7092 8.49337C14.2922 9.32759 14.5838 10.3756 14.5838 11.6374V19.5209C14.5838 20.0839 14.6343 20.6836 14.7352 21.3196C14.8473 21.9558 15.0099 22.5033 15.223 22.9621V23.2123H11.9768C11.8198 22.8786 11.6965 22.4354 11.6067 21.8828C11.5171 21.3196 11.4722 20.7983 11.4722 20.3186ZM12.0104 12.9513L12.044 14.9847H8.89881C8.013 14.9847 7.22249 15.0525 6.52723 15.1881C5.83205 15.3132 5.24898 15.5061 4.77803 15.7668C4.30708 16.0275 3.94827 16.356 3.70158 16.7523C3.4549 17.1381 3.33155 17.5917 3.33155 18.1131C3.33155 18.6449 3.4605 19.1298 3.7184 19.5678C3.9763 20.0057 4.36315 20.3551 4.87895 20.6158C5.40596 20.8661 6.0507 20.9912 6.81321 20.9912C7.76631 20.9912 8.60725 20.8035 9.3361 20.4281C10.065 20.0527 10.6424 19.5939 11.0685 19.0516C11.5059 18.5094 11.7413 17.9827 11.7749 17.4718L13.1037 18.8639C13.0252 19.3019 12.8122 19.7868 12.4645 20.3186C12.117 20.8504 11.6516 21.3614 11.0685 21.8515C10.4967 22.3312 9.81269 22.7327 9.01654 23.0559C8.23161 23.3688 7.34581 23.5252 6.35905 23.5252C5.12563 23.5252 4.04358 23.301 3.1129 22.8526C2.19343 22.4042 1.4758 21.8046 0.960002 21.0538C0.455417 20.2926 0.203125 19.4427 0.203125 18.5041C0.203125 17.5969 0.393746 16.7992 0.774989 16.1109C1.15623 15.4123 1.70567 14.8336 2.4233 14.3747C3.14093 13.9055 4.00433 13.5509 5.0135 13.311C6.02267 13.0712 7.14956 12.9513 8.39421 12.9513H12.0104ZM30.0746 18.7231C30.0746 18.306 29.9736 17.9202 29.7718 17.5656C29.5812 17.2007 29.1831 16.8722 28.5776 16.5802C27.9833 16.2778 27.0863 16.0171 25.8865 15.7981C24.8773 15.6 23.9635 15.3653 23.1449 15.0942C22.3376 14.8231 21.648 14.4946 21.0761 14.1088C20.5154 13.723 20.0838 13.2694 19.781 12.748C19.4783 12.2265 19.3269 11.6166 19.3269 10.9179C19.3269 10.2505 19.4839 9.61959 19.7978 9.02522C20.123 8.43079 20.5772 7.90419 21.1602 7.44536C21.7545 6.98653 22.4665 6.62676 23.2963 6.36611C24.126 6.1054 25.0511 5.97505 26.0715 5.97505C27.5292 5.97505 28.7738 6.2149 29.8054 6.69459C30.8371 7.17428 31.6276 7.81556 32.177 8.61854C32.7264 9.41103 33.0012 10.2922 33.0012 11.262H29.8895C29.8895 10.7927 29.7381 10.3391 29.4354 9.90116C29.1439 9.45276 28.7122 9.08256 28.1403 8.79056C27.5797 8.49862 26.89 8.35259 26.0715 8.35259C25.2081 8.35259 24.5073 8.47776 23.9691 8.72803C23.4421 8.96782 23.0552 9.27549 22.8085 9.65088C22.573 10.0263 22.4553 10.4225 22.4553 10.8397C22.4553 11.1525 22.5114 11.434 22.6235 11.6843C22.7469 11.9242 22.9599 12.1483 23.2627 12.3569C23.5654 12.555 23.9915 12.7427 24.541 12.92C25.0904 13.0973 25.7912 13.2746 26.6434 13.4518C28.1347 13.7647 29.3625 14.1401 30.3268 14.578C31.2911 15.016 32.0088 15.553 32.4797 16.1891C32.9507 16.8253 33.1861 17.5969 33.1861 18.5041C33.1861 19.2445 33.018 19.9224 32.6816 20.5376C32.3564 21.1528 31.8798 21.6847 31.2519 22.1331C30.6352 22.571 29.8952 22.9151 29.0317 23.1654C28.1796 23.4052 27.2208 23.5252 26.1556 23.5252C24.5522 23.5252 23.1954 23.2593 22.0853 22.7274C20.9752 22.1956 20.1342 21.5074 19.5623 20.6627C18.9905 19.818 18.7046 18.9265 18.7046 17.988H21.833C21.8778 18.7805 22.1245 19.4114 22.573 19.8806C23.0216 20.3395 23.571 20.6679 24.2213 20.8661C24.8717 21.0538 25.5165 21.1476 26.1556 21.1476C27.0078 21.1476 27.7198 21.0433 28.2917 20.8348C28.8748 20.6262 29.3177 20.3395 29.6204 19.9744C29.9232 19.6095 30.0746 19.1924 30.0746 18.7231ZM47.8696 18.7231C47.8696 18.306 47.7687 17.9202 47.5669 17.5656C47.3762 17.2007 46.9782 16.8722 46.3726 16.5802C45.7784 16.2778 44.8814 16.0171 43.6816 15.7981C42.6724 15.6 41.7585 15.3653 40.94 15.0942C40.1326 14.8231 39.443 14.4946 38.8712 14.1088C38.3105 13.723 37.8788 13.2694 37.5761 12.748C37.2733 12.2265 37.1219 11.6166 37.1219 10.9179C37.1219 10.2505 37.2789 9.61959 37.5929 9.02522C37.9181 8.43079 38.3722 7.90419 38.9553 7.44536C39.5495 6.98653 40.2616 6.62676 41.0913 6.36611C41.9211 6.1054 42.8462 5.97505 43.8665 5.97505C45.3242 5.97505 46.5689 6.2149 47.6005 6.69459C48.6321 7.17428 49.4226 7.81556 49.972 8.61854C50.5215 9.41103 50.7962 10.2922 50.7962 11.262H47.6846C47.6846 10.7927 47.5332 10.3391 47.2304 9.90116C46.9389 9.45276 46.5072 9.08256 45.9353 8.79056C45.3747 8.49862 44.6851 8.35259 43.8665 8.35259C43.0032 8.35259 42.3023 8.47776 41.7641 8.72803C41.2371 8.96782 40.8503 9.27549 40.6036 9.65088C40.3681 10.0263 40.2504 10.4225 40.2504 10.8397C40.2504 11.1525 40.3064 11.434 40.4185 11.6843C40.5419 11.9242 40.755 12.1483 41.0577 12.3569C41.3604 12.555 41.7866 12.7427 42.336 12.92C42.8854 13.0973 43.5863 13.2746 44.4384 13.4518C45.9298 13.7647 47.1576 14.1401 48.1219 14.578C49.0862 15.016 49.8038 15.553 50.2748 16.1891C50.7457 16.8253 50.9812 17.5969 50.9812 18.5041C50.9812 19.2445 50.813 19.9224 50.4766 20.5376C50.1515 21.1528 49.6749 21.6847 49.047 22.1331C48.4302 22.571 47.6902 22.9151 46.8268 23.1654C45.9746 23.4052 45.0159 23.5252 43.9506 23.5252C42.3472 23.5252 40.9904 23.2593 39.8804 22.7274C38.7702 22.1956 37.9293 21.5074 37.3574 20.6627C36.7855 19.818 36.4996 18.9265 36.4996 17.988H39.628C39.6729 18.7805 39.9196 19.4114 40.3681 19.8806C40.8166 20.3395 41.3661 20.6679 42.0164 20.8661C42.6667 21.0538 43.3115 21.1476 43.9506 21.1476C44.8028 21.1476 45.5148 21.0433 46.0867 20.8348C46.6698 20.6262 47.1127 20.3395 47.4155 19.9744C47.7182 19.6095 47.8696 19.1924 47.8696 18.7231ZM58.4491 6.28785V23.2123H55.3206V6.28785H58.4491ZM55.0852 1.79868C55.0852 1.32942 55.2365 0.933164 55.5393 0.609896C55.8532 0.286634 56.313 0.125 56.9185 0.125C57.5128 0.125 57.9669 0.286634 58.2809 0.609896C58.606 0.933164 58.7686 1.32942 58.7686 1.79868C58.7686 2.24708 58.606 2.63291 58.2809 2.95617C57.9669 3.26901 57.5128 3.42543 56.9185 3.42543C56.313 3.42543 55.8532 3.26901 55.5393 2.95617C55.2365 2.63291 55.0852 2.24708 55.0852 1.79868ZM74.0407 18.7231C74.0407 18.306 73.94 17.9202 73.7378 17.5656C73.5471 17.2007 73.1492 16.8722 72.544 16.5802C71.9496 16.2778 71.0523 16.0171 69.8528 15.7981C68.8434 15.6 67.9296 15.3653 67.1109 15.0942C66.3036 14.8231 65.6142 14.4946 65.0426 14.1088C64.4818 13.723 64.0496 13.2694 63.7474 12.748C63.4445 12.2265 63.293 11.6166 63.293 10.9179C63.293 10.2505 63.4502 9.61959 63.7639 9.02522C64.0889 8.43079 64.5433 7.90419 65.1263 7.44536C65.7206 6.98653 66.4329 6.62676 67.2624 6.36611C68.0925 6.1054 69.0176 5.97505 70.0378 5.97505C71.4953 5.97505 72.7398 6.2149 73.7714 6.69459C74.803 7.17428 75.5938 7.81556 76.1432 8.61854C76.6926 9.41103 76.967 10.2922 76.967 11.262H73.8557C73.8557 10.7927 73.7042 10.3391 73.4014 9.90116C73.1099 9.45276 72.6783 9.08256 72.1068 8.79056C71.546 8.49862 70.8565 8.35259 70.0378 8.35259C69.1741 8.35259 68.4733 8.47776 67.9353 8.72803C67.4081 8.96782 67.0216 9.27549 66.7744 9.65088C66.5393 10.0263 66.4215 10.4225 66.4215 10.8397C66.4215 11.1525 66.4779 11.434 66.5894 11.6843C66.713 11.9242 66.9259 12.1483 67.2288 12.3569C67.5317 12.555 67.9575 12.7427 68.5069 12.92C69.0563 13.0973 69.7571 13.2746 70.6094 13.4518C72.1011 13.7647 73.3285 14.1401 74.2929 14.578C75.2574 15.016 75.9747 15.553 76.4461 16.1891C76.917 16.8253 77.1521 17.5969 77.1521 18.5041C77.1521 19.2445 76.9841 19.9224 76.6477 20.5376C76.3226 21.1528 75.8461 21.6847 75.2181 22.1331C74.6015 22.571 73.8614 22.9151 72.9977 23.1654C72.146 23.4052 71.1873 23.5252 70.1221 23.5252C68.5183 23.5252 67.1616 23.2593 66.0514 22.7274C64.9412 22.1956 64.1003 21.5074 63.5288 20.6627C62.9567 19.818 62.6708 18.9265 62.6708 17.988H65.7992C65.8442 18.7805 66.0907 19.4114 66.5393 19.8806C66.988 20.3395 67.5374 20.6679 68.1875 20.8661C68.8377 21.0538 69.4827 21.1476 70.1221 21.1476C70.9738 21.1476 71.686 21.0433 72.2576 20.8348C72.8412 20.6262 73.2841 20.3395 73.5864 19.9744C73.8893 19.6095 74.0407 19.1924 74.0407 18.7231ZM88.8585 6.28785V8.50905H79.0195V6.28785H88.8585ZM82.3494 2.17408H85.4614V19.0203C85.4614 19.5939 85.5564 20.0266 85.7472 20.3186C85.9379 20.6106 86.1844 20.8035 86.4873 20.8974C86.7902 20.9912 87.1152 21.0381 87.4625 21.0381C87.7204 21.0381 87.9897 21.0173 88.2698 20.9756C88.5613 20.9234 88.7805 20.8817 88.9263 20.8504L88.9428 23.2123C88.6963 23.2853 88.3712 23.3531 87.9675 23.4157C87.5747 23.4887 87.0981 23.5252 86.5373 23.5252C85.775 23.5252 85.0742 23.3844 84.4355 23.1028C83.7961 22.8213 83.286 22.352 82.9045 21.6951C82.5344 21.0277 82.3494 20.1309 82.3494 19.0047V2.17408ZM100.061 23.5252C98.7932 23.5252 97.6443 23.327 96.6127 22.9308C95.5919 22.5241 94.7117 21.9558 93.9716 21.2258C93.2428 20.4959 92.682 19.6304 92.2898 18.6293C91.8976 17.6282 91.7011 16.5333 91.7011 15.3445V14.6875C91.7011 13.311 91.9197 12.0858 92.357 11.0117C92.7942 9.9272 93.3886 9.00954 94.1401 8.25877C94.891 7.50794 95.7433 6.93962 96.6964 6.5538C97.6494 6.16799 98.6367 5.97505 99.6569 5.97505C100.958 5.97505 102.079 6.1836 103.021 6.60071C103.974 7.01782 104.753 7.60182 105.359 8.35259C105.964 9.09299 106.412 9.96893 106.704 10.9804C106.996 11.9815 107.142 13.0764 107.142 14.2652V15.5635H93.5514V13.2015H104.03V12.9826C103.985 12.2318 103.817 11.5018 103.525 10.7927C103.245 10.0836 102.797 9.49967 102.18 9.04083C101.563 8.582 100.722 8.35259 99.6569 8.35259C98.9503 8.35259 98.3002 8.49337 97.7058 8.77494C97.1114 9.04608 96.6013 9.45276 96.1755 9.99497C95.749 10.5372 95.4182 11.1994 95.1831 11.9815C94.9474 12.7636 94.8296 13.6656 94.8296 14.6875V15.3445C94.8296 16.1475 94.9474 16.9035 95.1831 17.6126C95.4296 18.3112 95.7826 18.9265 96.2426 19.4583C96.7135 19.9901 97.28 20.4072 97.9415 20.7097C98.6138 21.012 99.3768 21.1632 100.228 21.1632C101.328 21.1632 102.258 20.9547 103.021 20.5376C103.783 20.1205 104.451 19.5626 105.022 18.8639L106.906 20.256C106.514 20.8087 106.014 21.3353 105.409 21.8359C104.804 22.3364 104.058 22.7431 103.172 23.0559C102.297 23.3688 101.26 23.5252 100.061 23.5252ZM113.886 8.94702V23.2123H110.775V6.28785H113.802L113.886 8.94702ZM119.571 6.19403L119.554 8.88443C119.296 8.83228 119.05 8.80099 118.814 8.79056C118.59 8.7697 118.332 8.75927 118.04 8.75927C117.323 8.75927 116.689 8.86357 116.14 9.07213C115.591 9.28068 115.125 9.57268 114.744 9.94806C114.362 10.3234 114.06 10.7718 113.836 11.2933C113.622 11.8042 113.482 12.3673 113.415 12.9826L112.541 13.4518C112.541 12.4299 112.647 11.4705 112.86 10.5737C113.084 9.67693 113.427 8.88443 113.886 8.19619C114.346 7.49751 114.929 6.95524 115.636 6.56942C116.353 6.17317 117.205 5.97505 118.192 5.97505C118.416 5.97505 118.674 6.0011 118.965 6.05325C119.257 6.09497 119.459 6.14188 119.571 6.19403ZM125.559 8.94702V23.2123H122.447V6.28785H125.475L125.559 8.94702ZM131.244 6.19403L131.227 8.88443C130.969 8.83228 130.723 8.80099 130.487 8.79056C130.263 8.7697 130.005 8.75927 129.713 8.75927C128.996 8.75927 128.362 8.86357 127.813 9.07213C127.263 9.28068 126.798 9.57268 126.417 9.94806C126.035 10.3234 125.732 10.7718 125.509 11.2933C125.295 11.8042 125.155 12.3673 125.088 12.9826L124.214 13.4518C124.214 12.4299 124.32 11.4705 124.533 10.5737C124.757 9.67693 125.099 8.88443 125.559 8.19619C126.019 7.49751 126.602 6.95524 127.308 6.56942C128.026 6.17317 128.878 5.97505 129.865 5.97505C130.089 5.97505 130.347 6.0011 130.638 6.05325C130.93 6.09497 131.132 6.14188 131.244 6.19403Z" fill="#DB5F94"/>
</svg>
